<?xml version="1.0" encoding="utf-8"?>
<!-- Generator: Adobe Illustrator 18.1.0, SVG Export Plug-In . SVG Version: 6.00 Build 0)  -->
<svg version="1.1" id="Layer_1" xmlns="http://www.w3.org/2000/svg" xmlns:xlink="http://www.w3.org/1999/xlink" x="0px" y="0px"
	 viewBox="0 0 786.9 750.3" enable-background="new 0 0 786.9 750.3" xml:space="preserve">
<g>
	<path d="M664.7,505.8c-67.4,0-122.3,54.8-122.3,122.3c0,4,0.2,8,0.6,11.9H243.9c0.4-3.9,0.6-7.9,0.6-11.9
		c0-48.5-28.3-90.4-69.3-110.2l54.7-94.7l-17.3-10l-56.3,97.5c-10.8-3.1-22.2-4.8-34-4.8C54.8,505.8,0,560.6,0,628
		s54.8,122.3,122.3,122.3c56.4,0,103.9-38.4,118-90.3h306.4c14.1,52,61.6,90.3,118,90.3c67.4,0,122.3-54.8,122.3-122.3
		S732.1,505.8,664.7,505.8z M93.3,726.1v-43h-20v34.7c-4.9-2.7-9.5-5.8-13.9-9.2v-50.2c0-9.7,7.9-17.6,17.6-17.6h12.8l30.1,44.9
		l34.1-44.9h10.5c9.7,0,17.6,7.9,17.6,17.6v52.4c-3.9,2.8-7.9,5.4-12.2,7.6v-34.8h-20v42.8c-8.8,2.5-18.2,3.9-27.8,3.9
		C112.2,730.3,102.5,728.8,93.3,726.1z M91.6,587.2c0-16.1,13.1-29.2,29.2-29.2s29.2,13.1,29.2,29.2c0,16.1-13.1,29.2-29.2,29.2
		S91.6,603.3,91.6,587.2z M129,640.8l-8,10.6l-7.1-10.6H129z M202.2,691.7v-33.3c0-20.7-16.9-37.6-37.6-37.6h-8
		c8.3-8.8,13.4-20.7,13.4-33.7c0-27.1-22.1-49.2-49.2-49.2s-49.2,22.1-49.2,49.2c0,13,5.1,24.9,13.4,33.7h-8
		c-20.7,0-37.6,16.9-37.6,37.6V688C27.2,671.1,20,650.4,20,628c0-56.4,45.9-102.3,102.3-102.3c56.4,0,102.3,45.9,102.3,102.3
		C224.5,652.1,216.2,674.2,202.2,691.7z M635.7,726.1v-43h-20v34.7c-4.9-2.7-9.5-5.8-13.9-9.2v-50.2c0-9.7,7.9-17.6,17.6-17.6h12.7
		l30.1,44.9l34.1-44.9H707c9.7,0,17.6,7.9,17.6,17.6v52.4c-3.9,2.8-7.9,5.4-12.2,7.6v-34.8h-20v42.8c-8.8,2.5-18.2,3.9-27.8,3.9
		C654.6,730.3,644.9,728.8,635.7,726.1z M634,587.2c0-16.1,13.1-29.2,29.2-29.2c16.1,0,29.2,13.1,29.2,29.2
		c0,16.1-13.1,29.2-29.2,29.2C647.1,616.4,634,603.3,634,587.2z M671.3,640.8l-8,10.6l-7.1-10.6H671.3z M744.6,691.7v-33.3
		c0-20.7-16.9-37.6-37.6-37.6h-8c8.3-8.8,13.4-20.7,13.4-33.7c0-27.1-22.1-49.2-49.2-49.2c-27.1,0-49.2,22.1-49.2,49.2
		c0,13,5.1,24.9,13.4,33.7h-8c-20.7,0-37.6,16.9-37.6,37.6V688c-12.2-16.9-19.5-37.6-19.5-60c0-56.4,45.9-102.3,102.3-102.3
		c56.4,0,102.3,45.9,102.3,102.3C766.9,652.1,758.6,674.2,744.6,691.7z"/>
	<path d="M645.9,304.7L543,201.8l-59.7,58.6l-21.3-37c32.4-22,53.7-59.2,53.7-101.2C515.7,54.8,460.9,0,393.5,0
		C326,0,271.2,54.8,271.2,122.3c0,41.1,20.4,77.6,51.7,99.7l-23.2,39.7l-57.2-60.2l-103,103l107.8,111.3l5.4-5.4l2.7,2.7l7.6,30.9
		c3,12.2,7.6,23.9,13.7,34.8l-10.8,10.8c-5.3,5.3-8.3,12.4-8.3,19.9c0,7.5,2.9,14.6,8.3,19.9c4.2,4.2,9.5,6.8,15,7.8
		c-0.4,8.2,2.5,16.5,8.8,22.8c5.5,5.5,12.9,8.6,20.7,8.8c0.6,7,3.6,13.5,8.6,18.5c5.6,5.6,13.1,8.7,21,8.7c0.7,0,1.3-0.1,1.9-0.1
		c1.1,4.8,3.5,9.5,7.2,13.2c5.3,5.3,12.2,7.9,19.1,7.9c6.9,0,13.8-2.6,19.1-7.9l7.7-7.7c3.3,1.3,6.8,2,10.5,2c0,0,0.1,0,0.1,0
		c7.6,0,14.7-2.9,20.1-8.3c2.1-2.1,3.8-4.5,5.1-7c5.4,4.7,12.1,7.1,18.8,7.1c7.3,0,14.5-2.8,20.1-8.3c2.4-2.4,4.3-5.2,5.7-8.2
		c4,2.1,8.4,3.2,13.1,3.2c0,0,0,0,0.1,0c7.6,0,14.7-3,20.1-8.3c5.4-5.4,8.3-12.5,8.3-20.1c0-6.4-2.1-12.4-6-17.4
		c2.6-1.3,5-3.1,7.1-5.2c11.1-11.1,11.3-28.9,0.4-39.8l-8.7-8.7c5.6-10.4,9.9-21.4,12.9-32.8l8.3-31.7l3.1-3.1l7.1-7.1l2.9-2.9
		l54.8,94.9l17.3-10l-57.5-99.6l18-18L645.9,304.7z M344.6,177.4v34.7c-4.9-2.7-9.5-5.8-13.9-9.2v-50.2c0-9.7,7.9-17.6,17.6-17.6
		h11.4l31.5,46.9l35.6-46.9h9.1c9.7,0,17.6,7.9,17.6,17.6V205c-3.9,2.8-7.9,5.4-12.2,7.6v-34.8h-20v42.8c-8.8,2.5-18.2,3.9-27.8,3.9
		c-10,0-19.7-1.5-28.9-4.2v-43H344.6z M362.8,81.4c0-16.1,13.1-29.2,29.2-29.2c16.1,0,29.2,13.1,29.2,29.2
		c0,16.1-13.1,29.2-29.2,29.2C375.9,110.6,362.8,97.5,362.8,81.4z M401.6,135l-9.5,12.5l-8.4-12.5H401.6z M291.2,122.3
		C291.2,65.9,337.1,20,393.5,20c56.4,0,102.3,45.9,102.3,102.3c0,24.1-8.4,46.2-22.3,63.7v-33.3c0-20.7-16.9-37.6-37.6-37.6h-8
		c8.3-8.8,13.4-20.7,13.4-33.7c0-27.1-22.1-49.2-49.2-49.2s-49.2,22.1-49.2,49.2c0,13,5.1,24.9,13.4,33.7h-8
		c-20.7,0-37.6,16.9-37.6,37.6v29.6C298.4,165.4,291.2,144.6,291.2,122.3z M393.5,244.5c18.3,0,35.6-4,51.1-11.2l24,41.6L430.8,312
		l0.1,0.1l-1.8,1.8l-29.5,6.4c-1.7,0.4-3.4,0.7-5.1,1.1c-9.8,2.1-20.1,4.3-30.1,7.6l-16.3-7.9L345,318l5.3-5.3l-36.2-36.2l25.9-44.4
		C356.2,240.1,374.3,244.5,393.5,244.5z M247.5,387.3l-7.8-8l74.7-74.1l7.6,7.6L247.5,387.3z M242.1,230.1l51.2,53.9l7,7l-74.5,73.9
		l-58.3-60.2L242.1,230.1z M277.5,509.6c0-2.2,0.9-4.2,2.4-5.8l7.9-7.9c3.3,4.3,6.9,8.5,10.7,12.4l0,0l-7,7c-3.2,3.2-8.4,3.2-11.6,0
		C278.3,513.8,277.5,511.8,277.5,509.6z M303.6,531.5l2-2l7-7l14.5,14.5l-9,9c-1.9,1.9-4.5,3-7.2,3c-2.7,0-5.3-1.1-7.2-3
		C299.6,542,299.6,535.5,303.6,531.5z M332.9,573.3c-1.8-1.8-2.9-4.3-2.9-6.9c0-2.6,1-5.1,2.9-6.9l8.3-8.3L355,565l-6,6c0,0,0,0,0,0
		l-2.3,2.3c-1.8,1.8-4.3,2.9-6.9,2.9S334.7,575.1,332.9,573.3z M363.1,595.1c-2.8-2.8-2.8-7.2,0-10l6-6l10,10l-6,6
		C370.3,597.9,365.9,597.9,363.1,595.1z M494.3,559.7c-1.6,1.6-3.7,2.5-6,2.5c-2.3,0-4.4-0.9-6-2.5l-12.9-12.9c0,0,0,0,0,0
		l-64.1-64.1v0l-5.2-5.2L386,491.6l69.3,69.3c3.4,3.4,3.4,8.8,0.1,12.1c-3.3,3.3-8.7,3.2-12.1-0.1L425.5,555l-48.3-48.3l-5.2-5.2
		l-14.1,14.1l5.2,5.2l48.3,48.3c3.4,3.4,3.4,8.8,0.1,12.1c-1.6,1.6-3.7,2.5-6,2.4c-2.3,0-4.5-0.9-6.1-2.6l-85.2-85.2
		c-15.5-15.5-26.6-35.1-31.9-56.7l-9-36.3l-6.6-6.6l64.1-64.1l5.5,5.5l4.8,2.3c-3.5,2.3-6.7,5-9.7,8l-36.5,36.5
		c-10.7,10.7-10.4,28.4,0.7,39.5c5.7,5.7,13.1,8.5,20.4,8.5c7,0,13.9-2.6,19.1-7.8l21.2-21.2c9.7,3.6,28.8,8.9,52.1,6.7l95.7,95.3
		c3.1,3.1,2.9,8.3-0.4,11.6c-3.3,3.3-8.5,3.5-11.6,0.4l-69-69L409,462.4l6.8,6.8l78.4,78.4c1.6,1.6,2.5,3.8,2.5,6
		C496.8,556,495.9,558.1,494.3,559.7z M512.7,407.8l-9.6,36.9c-2.1,7.9-4.9,15.6-8.4,23L432,405.3c3.7-1.2,7.5-2.6,11.3-4.3l-8-18.3
		c-40.3,17.6-76.5,0.1-76.8,0l-6.5-3.2L321,410.5c-2.9,2.9-8,2.6-11.3-0.7c-3.3-3.3-3.6-8.3-0.7-11.3l36.5-36.5
		c12.5-12.5,33.1-16.9,53.1-21.1c1.7-0.4,3.5-0.7,5.2-1.1l35.2-7.6l6-6l74.6,74.6L512.7,407.8z M533.8,386.7l-74.6-74.6l83.7-82.2
		l74.6,74.6l-55.1,53.6L533.8,386.7z"/>
	<path fill="#E11F26" d="M459.2,312.1L445.1,298l-14.3,14l0.1,0.1l-1.8,1.8l-29.5,6.4c-1.7,0.4-3.4,0.7-5.1,1.1
		c-9.8,2.1-20.1,4.3-30.1,7.6l-16.3-7.9L345,318l-14.1,14.1l5.5,5.5l4.8,2.3c-3.5,2.3-6.7,5-9.7,8l-36.5,36.5
		c-10.7,10.7-10.4,28.4,0.7,39.5c5.7,5.7,13.1,8.5,20.4,8.5c7,0,13.9-2.6,19.1-7.8l21.2-21.2c9.7,3.6,28.8,8.9,52.1,6.7l95.7,95.3
		c3.1,3.1,2.9,8.3-0.4,11.6c-3.3,3.3-8.5,3.5-11.6,0.4l-69-69L409,462.4l6.8,6.8l78.4,78.4c1.6,1.6,2.5,3.8,2.5,6
		c0,2.3-0.9,4.4-2.5,6c-1.6,1.6-3.7,2.5-6,2.5c-2.3,0-4.4-0.9-6-2.5l-12.9-12.9c0,0,0,0,0,0l-64.1-64.1v0l-5.2-5.2L386,491.6
		l69.3,69.3c3.4,3.4,3.4,8.8,0.1,12.1c-3.3,3.3-8.7,3.2-12.1-0.1L425.5,555l-48.3-48.3l-5.2-5.2l-14.1,14.1l5.2,5.2l48.3,48.3
		c3.4,3.4,3.4,8.8,0.1,12.1c-1.6,1.6-3.7,2.5-6,2.4c-2.3,0-4.5-0.9-6.1-2.6l-85.2-85.2c-15.5-15.5-26.6-35.1-31.9-56.7l-9-36.3
		l-6.6-6.6l-14.1,14.1l2.7,2.7l7.6,30.9c3,12.2,7.6,23.9,13.7,34.8l-10.8,10.8c-5.3,5.3-8.3,12.4-8.3,19.9c0,7.5,2.9,14.6,8.3,19.9
		c4.2,4.2,9.5,6.8,15,7.8c-0.4,8.2,2.5,16.5,8.8,22.8c5.5,5.5,12.9,8.6,20.7,8.8c0.6,7,3.6,13.5,8.6,18.5c5.6,5.6,13.1,8.7,21,8.7
		c0.7,0,1.3-0.1,1.9-0.1c1.1,4.8,3.5,9.5,7.2,13.2c5.3,5.3,12.2,7.9,19.1,7.9c6.9,0,13.8-2.6,19.1-7.9l7.7-7.7c3.3,1.3,6.8,2,10.5,2
		c0,0,0.1,0,0.1,0c7.6,0,14.7-2.9,20.1-8.3c2.1-2.1,3.8-4.5,5.1-7c5.4,4.7,12.1,7.1,18.8,7.1c7.3,0,14.5-2.8,20.1-8.3
		c2.4-2.4,4.3-5.2,5.7-8.2c4,2.1,8.4,3.2,13.1,3.2c0,0,0,0,0.1,0c7.6,0,14.7-3,20.1-8.3c5.4-5.4,8.3-12.5,8.3-20.1
		c0-6.4-2.1-12.4-6-17.4c2.6-1.3,5-3.1,7.1-5.2c11.1-11.1,11.3-28.9,0.4-39.8l-8.7-8.7c5.6-10.4,9.9-21.4,12.9-32.8l8.3-31.7
		l3.1-3.1l7.1-7.1l2.9-2.9l-9.9-18.3L459.2,312.1z M298.5,508.4l-7,7c-3.2,3.2-8.4,3.2-11.6,0c-1.5-1.5-2.4-3.6-2.4-5.8
		c0-2.2,0.9-4.2,2.4-5.8l7.9-7.9C291.1,500.3,294.7,504.4,298.5,508.4L298.5,508.4z M318.1,546c-1.9,1.9-4.5,3-7.2,3
		c-2.7,0-5.3-1.1-7.2-3c-4-4-4-10.5,0-14.5l2-2l7-7l14.5,14.5L318.1,546z M349,571C349,571,349,571,349,571l-2.3,2.3
		c-1.8,1.8-4.3,2.9-6.9,2.9c-2.6,0-5.1-1-6.9-2.9c-1.8-1.8-2.9-4.3-2.9-6.9c0-2.6,1-5.1,2.9-6.9l8.3-8.3L355,565L349,571z
		 M373.1,595.1c-2.8,2.8-7.2,2.8-10,0c-2.8-2.8-2.8-7.2,0-10l6-6l10,10L373.1,595.1z M512.7,407.7l-9.6,36.9
		c-2.1,7.9-4.9,15.6-8.4,23L432,405.3c3.7-1.2,7.5-2.6,11.3-4.3l-8-18.3c-40.3,17.6-76.5,0.1-76.8,0l-6.5-3.2L321,410.5
		c-2.9,2.9-8,2.6-11.3-0.7c-3.3-3.3-3.6-8.3-0.7-11.3l36.5-36.5c12.5-12.5,33.1-16.9,53.1-21.1c1.7-0.4,3.5-0.7,5.2-1.1l35.2-7.6
		l6-6l74.6,74.6L512.7,407.7z"/>
	<path fill="#E11F26" d="M445,326.2"/>
</g>
</svg>
