<?xml version="1.0" encoding="utf-8"?>
<!-- Generator: Adobe Illustrator 18.1.0, SVG Export Plug-In . SVG Version: 6.00 Build 0)  -->
<svg version="1.1" id="Layer_1" xmlns="http://www.w3.org/2000/svg" xmlns:xlink="http://www.w3.org/1999/xlink" x="0px" y="0px"
	 viewBox="0 0 948.4 884.2" enable-background="new 0 0 948.4 884.2" xml:space="preserve">
<g>
	<g>
		<polygon points="171.9,226.5 140.6,226.5 140.6,195.3 114.1,195.3 114.1,226.5 82.8,226.5 82.8,253.1 114.1,253.1 114.1,284.4 
			140.6,284.4 140.6,253.1 171.9,253.1 		"/>
		<polygon points="273.5,31.3 242.2,31.3 242.2,0 215.6,0 215.6,31.3 184.4,31.3 184.4,57.8 215.6,57.8 215.6,89.1 242.2,89.1 
			242.2,57.8 273.5,57.8 		"/>
		<polygon points="695.4,55.5 664.1,55.5 664.1,24.2 637.6,24.2 637.6,55.5 606.3,55.5 606.3,82.1 637.6,82.1 637.6,113.3 
			664.1,113.3 664.1,82.1 695.4,82.1 		"/>
	</g>
</g>
<path fill="#E11F26" d="M447.1,367.6c74.5,0,135.1-60.6,135.1-135.1S521.6,97.5,447.1,97.5c-32.8,0-64.4,11.9-89,33.5l17.5,20
	c19.8-17.3,45.2-26.9,71.5-26.9c59.8,0,108.5,48.7,108.5,108.5c0,59.8-48.7,108.5-108.5,108.5s-108.5-48.7-108.5-108.5
	c0-22.3,6.7-43.6,19.3-61.8l-21.8-15.2c-15.8,22.7-24.1,49.3-24.1,77C312.1,307.1,372.6,367.6,447.1,367.6z"/>
<path fill="#E11F26" d="M404.8,260.6v0.8c0,18.6,12.2,34.4,29,39.8v22.9h26.6v-22.9c16.8-5.4,29-21.2,29-39.8
	c0-23.1-18.8-41.9-41.9-41.9h-0.4c-8.7,0-15.8-7.1-15.8-15.8c0-8.4,6.9-15.3,15.3-15.3h0.9c8.4,0,15.3,6.9,15.3,15.3v0.3h26.6v-0.3
	c0-18.6-12.2-34.4-29-39.8V141h-26.6v22.9c-16.8,5.4-29,21.2-29,39.8c0,23.4,19,42.4,42.4,42.4h0.4c8.4,0,15.3,6.9,15.3,15.3
	s-6.9,15.3-15.3,15.3h-0.9c-8.4,0-15.3-6.9-15.3-15.3v-0.8L404.8,260.6L404.8,260.6z"/>
<path d="M114.7,857.6H41.4v26.6h724.2h108.8h74v-26.6h-74V258.2H765.6v599.4H721V380.5H612.2v477.1H571V502.8H462.2v354.8H421V619.8
	H312.2v237.8H141.3v-52.7c20.3-0.7,57.9-5.6,83.1-30.9c35.3-35.3,30.9-94.7,30.7-97.3l-0.9-11.2l-11.2-0.9
	c-2.5-0.2-61.9-4.6-97.3,30.7c-1.6,1.6-3,3.2-4.4,4.8v-97.5c20.4-0.8,57.4-5.9,82.4-30.9c35.3-35.3,30.9-94.7,30.7-97.3l-0.9-11.2
	l-11.2-0.9c-2.5-0.2-61.9-4.6-97.3,30.7c-1.3,1.3-2.5,2.6-3.7,4v-84l146.1-103.9c28.6,59.4,89.4,100.5,159.7,100.5
	c83.3,0,153.3-57.8,172.1-135.4l228.6-162.5v59.2h26.6V63.4H766.9V90h65.6L624.1,238.2c0.1-1.9,0.1-3.7,0.1-5.6
	c0-97.6-79.4-177.1-177.1-177.1c-97.6,0-177.1,79.4-177.1,177.1c0,17.7,2.6,34.8,7.5,51L126.1,391.2c-4.2-8.1-9.5-15.9-16.4-22.8
	c-35.3-35.3-94.7-30.9-97.3-30.7l-11.2,0.9l-0.9,11.2c-0.2,2.5-4.6,61.9,30.7,97.3c25.5,25.5,63.6,30.3,83.8,30.9v88.5
	c-1.2,13.3-0.5,22.8-0.4,23.7l0.4,5.2v5.8c-1.6-1.9-3.3-3.8-5.1-5.6C74.4,560.4,15,564.8,12.4,565l-11.2,0.9l-0.9,11.2
	c-0.2,2.5-4.6,61.9,30.7,97.3c25.5,25.5,63.6,30.3,83.8,30.9L114.7,857.6L114.7,857.6z M792.2,284.8h55.7v572.8h-55.7V284.8z
	 M638.8,407.1h55.7V856h-55.7V407.1z M488.8,529.4h55.7V856h-55.7V529.4z M338.8,646.4h55.7V856h-55.7V646.4z M164.5,714.1
	c18.4-18.4,47.8-22.4,64.2-23.1c-0.6,16.4-4.6,45.7-23.1,64.2c-18.4,18.4-47.8,22.4-64.2,23.1C142.1,761.9,146,732.6,164.5,714.1z
	 M447.1,82.1c83,0,150.5,67.5,150.5,150.5s-67.5,150.5-150.5,150.5c-83,0-150.5-67.5-150.5-150.5S364.1,82.1,447.1,82.1z
	 M49.8,428.4c-18.4-18.4-22.4-47.8-23.1-64.2c16.4,0.6,45.7,4.6,64.2,23.1c18.4,18.4,22.4,47.8,23.1,64.2
	C97.6,450.8,68.3,446.9,49.8,428.4z M49.8,655.6c-18.4-18.4-22.4-47.8-23.1-64.2c16.4,0.6,45.7,4.6,64.2,23.1
	c18.4,18.4,22.4,47.8,23.1,64.2C97.5,678,68.2,674,49.8,655.6z M163.8,511.8c18.4-18.4,47.8-22.4,64.2-23.1
	c-0.7,16.4-4.6,45.8-23.1,64.2c-18.2,18.2-47.1,22.3-63.6,23v-8.4C142.9,550.8,148.2,527.5,163.8,511.8z"/>
</svg>
