<?xml version="1.0" encoding="utf-8"?>
<!-- Generator: Adobe Illustrator 18.1.0, SVG Export Plug-In . SVG Version: 6.00 Build 0)  -->
<svg version="1.1" id="Layer_1" xmlns="http://www.w3.org/2000/svg" xmlns:xlink="http://www.w3.org/1999/xlink" x="0px" y="0px"
	 viewBox="0 0 1282 1152.5" enable-background="new 0 0 1282 1152.5" xml:space="preserve">
<path d="M315.7,631c10.4,0,18.8-8.4,18.8-18.8c0-10.4-8.4-18.8-18.8-18.8h-48.9c-10.4,0-18.8,8.4-18.8,18.8
	c0,10.4,8.4,18.8,18.8,18.8H315.7z M315.7,631"/>
<path d="M207,705.4c0,10.4,8.4,18.8,18.8,18.8h131c10.4,0,18.8-8.4,18.8-18.8c0-10.4-8.4-18.8-18.8-18.8h-131
	C215.4,686.6,207,695,207,705.4L207,705.4z M207,705.4"/>
<path d="M947.5,612.2c0,10.4,8.4,18.8,18.8,18.8h48.9c10.4,0,18.8-8.4,18.8-18.8c0-10.4-8.4-18.8-18.8-18.8h-48.9
	C955.9,593.5,947.5,601.9,947.5,612.2L947.5,612.2z M947.5,612.2"/>
<path d="M925.2,724.2h131c10.4,0,18.8-8.4,18.8-18.8c0-10.4-8.4-18.8-18.8-18.8h-131c-10.4,0-18.8,8.4-18.8,18.8
	C906.4,715.8,914.8,724.2,925.2,724.2L925.2,724.2z M925.2,724.2"/>
<path d="M978.9,281.8v-37.6c0-24.2-19.6-43.8-43.8-43.8H346.9c-24.2,0-43.8,19.7-43.8,43.8v37.6c0,24.2,19.6,43.8,43.8,43.8h588.2
	C959.3,325.7,978.9,306,978.9,281.8L978.9,281.8z M340.7,281.8v-37.6c0-3.5,2.8-6.3,6.3-6.3h588.2c3.5,0,6.3,2.8,6.3,6.3v37.6
	c0,3.5-2.8,6.3-6.3,6.3H346.9C343.5,288.1,340.7,285.3,340.7,281.8L340.7,281.8z M340.7,281.8"/>
<path d="M516.6,396.3c-10.4,0-18.8,8.4-18.8,18.8c0,10.4,8.4,18.8,18.8,18.8h248.7c10.4,0,18.8-8.4,18.8-18.8
	c0-10.4-8.4-18.8-18.8-18.8H516.6z M516.6,396.3"/>
<path d="M1019.5,495.4c0-10.4-8.4-18.8-18.8-18.8H281.3c-10.4,0-18.8,8.4-18.8,18.8c0,10.4,8.4,18.8,18.8,18.8h719.5
	C1011.1,514.2,1019.5,505.8,1019.5,495.4L1019.5,495.4z M1019.5,495.4"/>
<path fill="none" d="M641,888.8c80.1,0,145.2-65.1,145.2-145.2c0-80.1-65.1-145.2-145.2-145.2s-145.2,65.1-145.2,145.2
	C495.8,823.6,560.9,888.8,641,888.8z M641,656.7c47.9,0,86.9,39,86.9,86.9c0,47.9-39,86.9-86.9,86.9s-86.9-39-86.9-86.9
	C554.1,695.7,593.1,656.7,641,656.7z"/>
<path fill="none" d="M659.8,1052.4c2.1,1.3,4.2,2.9,6,4.7l58.2,55.7V906.3c-19.6,10.1-41.3,16.7-64.2,19.1V1052.4z"/>
<path fill="none" d="M641,792.9c27.2,0,49.3-22.1,49.3-49.3c0-27.2-22.1-49.3-49.3-49.3c-27.2,0-49.3,22.1-49.3,49.3
	C591.7,770.8,613.8,792.9,641,792.9z"/>
<path fill="none" d="M1238.2,0c24.2,0,43.8,19.7,43.8,43.8V0H1238.2z"/>
<path fill="none" d="M43.8,0H0v43.8C0,19.7,19.7,0,43.8,0z"/>
<path fill="none" d="M1263.2,554.3c-10.4,0-18.8-8.4-18.8-18.8V43.8c0-3.5-2.8-6.3-6.3-6.3H43.8c-3.5,0-6.3,2.8-6.3,6.3v841
	c0,3.4,2.8,6.3,6.3,6.3h476.6v-10.3c-16.7-14.7-30.7-32.4-41.2-52.3H118.9c-10.4,0-18.8-8.4-18.8-18.8V118.9
	c0-10.4,8.4-18.8,18.8-18.8h874.5c10.4,0,18.8,8.4,18.8,18.8s-8.4,18.8-18.8,18.8H137.7V791h326.8c-4.1-15.1-6.3-31-6.3-47.4
	c0-100.8,82-182.8,182.8-182.8c100.8,0,182.8,82,182.8,182.8c0,16.4-2.2,32.2-6.3,47.4h326.8V137.7h-64.4
	c-10.4,0-18.8-8.4-18.8-18.8s8.4-18.8,18.8-18.8h83.2c10.4,0,18.8,8.4,18.8,18.8v690.8c0,10.4-8.4,18.8-18.8,18.8H802.8
	c-10.5,19.9-24.5,37.6-41.2,52.3v10.3h476.6c3.5,0,6.3-2.8,6.3-6.3V622c0-10.4,8.4-18.8,18.8-18.8s18.8,8.4,18.8,18.8v-86.4
	C1282,545.9,1273.6,554.3,1263.2,554.3z"/>
<path d="M1163.1,828.5c10.4,0,18.8-8.4,18.8-18.8V118.9c0-10.4-8.4-18.8-18.8-18.8h-83.2c-10.4,0-18.8,8.4-18.8,18.8
	s8.4,18.8,18.8,18.8h64.4V791H817.5c-3.6,16.1-14.7,37.6-14.7,37.6H1163.1z"/>
<path d="M137.7,791V137.7h855.7c10.4,0,18.8-8.4,18.8-18.8s-8.4-18.8-18.8-18.8H118.9c-10.4,0-18.8,8.4-18.8,18.8v690.8
	c0,10.4,8.4,18.8,18.8,18.8h360.3c0,0-11-20.5-14.7-37.6H137.7z"/>
<path fill="#DF2127" d="M539.2,965c10.4,0,18.8-8.4,18.8-18.8v-39.9c19.6,10.1,41.3,16.7,64.2,19.1v127c-2.1,1.3-4.2,2.9-6.1,4.7
	l-58.2,55.7v-80.1c0-10.4-8.4-18.8-18.8-18.8c-10.4,0-18.8,8.4-18.8,18.8v84c0,14.4,8.6,27.4,21.8,33c4.6,1.9,9.3,2.9,14.1,2.9
	c9.1,0,18-3.4,24.8-10l59.8-57.3l59.8,57.3c10.4,10,25.7,12.7,38.9,7.1c13.2-5.7,21.8-18.6,21.8-33V928.7v-37.5v-10.3
	c16.7-14.7,30.7-32.4,41.2-52.3c0,0,11.2-21.5,14.7-37.6c4.1-15.1,6.3-31,6.3-47.4c0-100.8-82-182.8-182.8-182.8
	c-100.8,0-182.8,82-182.8,182.8c0,16.4,2.2,32.2,6.3,47.4c3.7,17,14.7,37.6,14.7,37.6c10.5,19.9,24.5,37.6,41.2,52.3v10.3v37.5v17.5
	C520.4,956.5,528.8,965,539.2,965z M724,1112.7l-58.2-55.7c-1.9-1.8-3.9-3.3-6-4.7v-127c22.9-2.3,44.6-9,64.2-19.1V1112.7z
	 M495.8,743.6c0-80.1,65.1-145.2,145.2-145.2s145.2,65.1,145.2,145.2c0,80.1-65.1,145.2-145.2,145.2S495.8,823.6,495.8,743.6z"/>
<path d="M1238.2,0H43.8C19.7,0,0,19.7,0,43.8v841c0,24.2,19.7,43.8,43.8,43.8h476.6v-37.5H43.8c-3.5,0-6.3-2.8-6.3-6.3v-841
	c0-3.5,2.8-6.3,6.3-6.3h1194.4c3.5,0,6.3,2.8,6.3,6.3v491.7c0,10.4,8.4,18.8,18.8,18.8s18.8-8.4,18.8-18.8V43.8
	C1282,19.7,1262.3,0,1238.2,0z"/>
<path d="M1263.2,603.2c-10.4,0-18.8,8.4-18.8,18.8v262.9c0,3.4-2.8,6.3-6.3,6.3H761.6v37.5h476.6c24.2,0,43.8-19.7,43.8-43.8V622
	C1282,611.6,1273.6,603.2,1263.2,603.2z"/>
<path fill="#DF2127" d="M641,830.5c47.9,0,86.9-39,86.9-86.9c0-47.9-39-86.9-86.9-86.9s-86.9,39-86.9,86.9
	C554.1,791.5,593.1,830.5,641,830.5z M641,694.2c27.2,0,49.3,22.1,49.3,49.3c0,27.2-22.1,49.3-49.3,49.3
	c-27.2,0-49.3-22.1-49.3-49.3C591.7,716.4,613.8,694.2,641,694.2z"/>
</svg>
