<?xml version="1.0" encoding="utf-8"?>
<!-- Generator: Adobe Illustrator 18.1.0, SVG Export Plug-In . SVG Version: 6.00 Build 0)  -->
<svg version="1.1" id="Layer_1" xmlns="http://www.w3.org/2000/svg" xmlns:xlink="http://www.w3.org/1999/xlink" x="0px" y="0px"
	 viewBox="0 0 1025.9 925" enable-background="new 0 0 1025.9 925" xml:space="preserve">
<g>
	<path d="M0,849.2V925h1025.9v-75.8H0z M1001.7,900.7H24.2v-27.3h977.5V900.7z"/>
	<path d="M147.1,260.3h731.7L513,55.5L147.1,260.3z M240,236.1L513,83.3l273,152.8H240z"/>
	<path d="M1009,277.6L513,0L17,277.6v31.1h992V277.6z M54.2,284.6L513,27.8l458.8,256.8H54.2z"/>
	<path d="M458,172.6c0,30.3,24.6,54.9,54.9,54.9c30.3,0,54.9-24.6,54.9-54.9c0-30.3-24.6-54.9-54.9-54.9
		C482.7,117.7,458,142.3,458,172.6z M513,141.9c16.9,0,30.7,13.8,30.7,30.7c0,16.9-13.8,30.7-30.7,30.7c-16.9,0-30.7-13.8-30.7-30.7
		C482.3,155.7,496,141.9,513,141.9z"/>
	<path fill="#E11F26" d="M516.4,661c-21.1-6.2-23-11.1-23.6-17.9c-1-11.1,5.9-20.9,16-22.9c0.5-0.1,1-0.2,1.6-0.2
		c5-0.6,10,1,13.9,4.4c4.2,3.7,6.6,9,6.5,14.6l0,1.2l24.2,0l0-1.2c0-12.5-5.3-24.5-14.7-32.8c-4.5-4-9.7-6.9-15.2-8.7v-27h-24.2
		v26.6c-20.5,5.7-34.2,25.7-32.3,48c2.2,24.3,21,33.1,41,39c21.6,6.3,23.6,13.1,23.8,20.1c0.3,9.5-5.3,17.6-13.9,20.1
		c-1.2,0.4-2.5,0.6-3.7,0.8c-5.1,0.7-10-0.9-14-4.4c-4.2-3.7-6.6-9-6.6-14.6h-24.2c0,12.5,5.4,24.5,14.8,32.8
		c4.5,3.9,9.6,6.8,15.1,8.5v27h24.2V748c0.4-0.1,0.9-0.2,1.3-0.3c18.9-5.6,31.7-23.7,31.2-44C556.7,672.8,527.4,664.2,516.4,661z"/>
	<path d="M641.6,821.9h383.2v-24.2h-42.4L971,471.9h38v-44.7V403v-57.9h-24.2V403H41.2v-57.8H17V403v24.2v44.7h38L43.6,797.6H1.2
		v24.2h383.2H641.6z M408.6,797.6V636.7c0-57.6,46.8-104.4,104.4-104.4c57.6,0,104.4,46.8,104.4,104.4v160.9L408.6,797.6
		L408.6,797.6z M706.9,793.8l11.2-321.9h22.4l11.2,321.9H706.9z M913.1,793.8l11.2-321.9h22.4L958,793.8H913.1z M886.4,427.2h98.3
		v20.5h-14.6H901h-14.6V427.2z M802.7,427.2h59.5v44.7h37.9l-11.4,325.7H776.1l-11.4-325.7h38L802.7,427.2L802.7,427.2z
		 M680.2,427.2h98.3v20.5h-14.6h-69.2h-14.6L680.2,427.2L680.2,427.2z M67.9,793.8l11.2-321.9h22.4l11.2,321.9H67.9z M55.8,447.7
		H41.2v-20.5h98.3v20.5h-14.6H55.8z M249.8,797.6H137.2l-11.4-325.7h38v-44.7h59.5v44.7h38L249.8,797.6z M274.2,793.8l11.2-321.9
		h22.4L319,793.8H274.2z M262,447.7h-14.6v-20.5h98.3v20.5h-14.6H262z M343.4,797.6L332,471.9h38v-44.7h285.9v44.7h38l-11.4,325.7
		h-40.9V636.7c0-70.9-57.7-128.6-128.6-128.6s-128.6,57.7-128.6,128.6v160.9L343.4,797.6L343.4,797.6z"/>
	<path fill="#E11F26" d="M513,508.3c-70.9,0-128.6,57.7-128.6,128.6v160.9h24.2V636.9c0-57.6,46.8-104.4,104.4-104.4
		c57.6,0,104.4,46.8,104.4,104.4v160.9h24.2V636.9C641.6,566,583.9,508.3,513,508.3z"/>
</g>
</svg>
