<?xml version="1.0" encoding="utf-8"?>
<!-- Generator: Adobe Illustrator 18.1.0, SVG Export Plug-In . SVG Version: 6.00 Build 0)  -->
<svg version="1.1" id="Layer_1" xmlns="http://www.w3.org/2000/svg" xmlns:xlink="http://www.w3.org/1999/xlink" x="0px" y="0px"
	 viewBox="0 0 722.6 649.2" enable-background="new 0 0 722.6 649.2" xml:space="preserve">
<g>
	<path d="M236.7,505v22.6h-23.3v21.2h23.3v29.5h-23.3v21.2h23.3v49.2H434v-49.2h25.3v-21.2H434v-29.5h25.3v-21.2H434v-22.9
		c0-62,21.1-121.4,59.3-167.2C524,300.6,541,253.8,541,205.8c0-55.9-22-108.2-62-147.2c-40-39-92.8-59.8-148.7-58.5
		c-53.7,1.3-104.1,23.3-142,62.1c-37.9,38.8-58.7,89.7-58.8,143.5c0,48.2,17,95,47.8,132C215.6,383.5,236.7,442.9,236.7,505z
		 M412.7,627.5H257.9v-27.9h154.8V627.5z M412.7,578.4H257.9v-29.5h154.8V578.4z M257.9,527.6V505c0-2.3,0-4.6-0.1-6.9h155
		c0,2.2-0.1,4.4-0.1,6.6v22.9H257.9z M330.8,21.3c50.1-1.2,97.5,17.4,133.4,52.5c35.9,35,55.6,81.9,55.6,132
		c0,43.1-15.2,85.1-42.8,118.1c-35.6,42.7-57.5,96.2-62.9,153h-39.9v-38.7h-21.2v38.7h-35.4v-38.7h-21.2v38.7h-39.7
		c-5.5-56.7-27.3-110.2-63-152.9c-27.7-33.1-42.9-75.1-42.9-118.3C150.7,106.3,231.5,23.6,330.8,21.3z"/>
	<path fill="#E11F26" d="M335.2,335.1c70.9,0,128.5-57.6,128.5-128.5S406.1,78.1,335.2,78.1c-70.9,0-128.5,57.6-128.5,128.5
		S264.4,335.1,335.2,335.1z M335.2,99.4c59.1,0,107.3,48.1,107.3,107.3c0,59.1-48.1,107.3-107.3,107.3s-107.3-48.1-107.3-107.3
		C227.9,147.5,276.1,99.4,335.2,99.4z"/>
	<path fill="#E11F26" d="M335.2,301.9c52.5,0,95.2-42.7,95.2-95.2s-42.7-95.2-95.2-95.2S240,154.1,240,206.6
		C240,259.1,282.7,301.9,335.2,301.9z M335.2,132.6c40.8,0,74,33.2,74,74s-33.2,74-74,74c-40.8,0-74-33.2-74-74
		C261.2,165.8,294.4,132.6,335.2,132.6z"/>
	<polygon fill="#E11F26" points="395.2,185.9 380.1,170.9 316.2,234.8 292.5,211.1 277.5,226.2 316.2,264.9 	"/>
	<g>
		<polygon fill="#E11F26" points="615.8,409 637.1,409 637.1,155.6 614.4,155.6 646.9,113.2 679.5,155.6 656.4,155.6 656.4,409 
			677.7,409 677.7,176.9 722.6,176.9 646.9,78.3 571.3,176.9 615.8,176.9 		"/>
		<rect x="656.6" y="437.1" fill="#E11F26" width="21.2" height="27"/>
		<rect x="656.6" y="544.2" fill="#E11F26" width="21.2" height="27"/>
		<rect x="656.6" y="490.6" fill="#E11F26" width="21.2" height="27"/>
		<rect x="616" y="490.6" fill="#E11F26" width="21.2" height="27"/>
		<rect x="616" y="437.1" fill="#E11F26" width="21.2" height="27"/>
	</g>
	<rect x="459.2" y="628" width="236.3" height="21.2"/>
	<polygon points="41.3,649.2 213.4,649.2 213.4,628 62.6,628 62.6,50.3 41.3,50.3 41.3,101.8 0,101.8 0,123 41.3,123 41.3,178.3 
		0,178.3 0,199.6 41.3,199.6 41.3,254.9 0,254.9 0,276.2 41.3,276.2 41.3,331.5 0,331.5 0,352.7 41.3,352.7 41.3,408.1 0,408.1 
		0,429.3 41.3,429.3 41.3,484.7 0,484.7 0,505.9 41.3,505.9 41.3,561.3 0,561.3 0,582.5 41.3,582.5 	"/>
</g>
</svg>
