<?xml version="1.0" encoding="utf-8"?>
<!-- Generator: Adobe Illustrator 22.0.1, SVG Export Plug-In . SVG Version: 6.00 Build 0)  -->
<svg version="1.1" id="Layer_1" xmlns="http://www.w3.org/2000/svg" xmlns:xlink="http://www.w3.org/1999/xlink" x="0px" y="0px"
	 viewBox="0 0 373 86" style="enable-background:new 0 0 373 86;" xml:space="preserve">
<style type="text/css">
	.st0{clip-path:url(#SVGID_2_);fill:url(#SVGID_3_);}
	.st1{fill:#E20613;}
</style>
<g>
	<g>
		<g>
			<defs>
				<polygon id="SVGID_1_" points="63.6,68 63.6,17.5 14,68 				"/>
			</defs>
			<clipPath id="SVGID_2_">
				<use xlink:href="#SVGID_1_"  style="overflow:visible;"/>
			</clipPath>
			
				<linearGradient id="SVGID_3_" gradientUnits="userSpaceOnUse" x1="-82.9195" y1="41.4412" x2="-81.919" y2="41.4412" gradientTransform="matrix(49.6734 0 0 49.6734 4132.8345 -2015.7739)">
				<stop  offset="0" style="stop-color:#B40613"/>
				<stop  offset="1" style="stop-color:#E20613"/>
			</linearGradient>
			<rect x="14" y="17.5" class="st0" width="49.7" height="50.5"/>
		</g>
	</g>
	<path d="M78.7,34.1V23.5h23.9v38.7h-7V29.6H85.4v4.6c0,18.7-4.3,28-15,28.4v-6.4C76.1,55.4,78.7,49.1,78.7,34.1"/>
	<path d="M113.6,23.5h7.5l7.6,19.1c0.9,2.3,1.9,5.7,1.9,5.7h0.1c0,0,1-3.4,1.9-5.7l7.6-19.1h7.5l3.2,38.7h-7l-1.6-21.6
		c-0.2-2.6-0.1-6-0.1-6h-0.1c0,0-1.3,3.8-2.1,6l-6.3,15h-6.1l-6.3-15c-0.9-2.2-2.1-6-2.1-6h-0.1c0,0,0.2,3.5-0.1,6l-1.6,21.6h-7
		L113.6,23.5z"/>
	<path d="M176.4,22.9c5.1,0,10.5,1.6,14.3,5.3l-3.4,5.2c-2.7-2.3-6.8-4.1-10.6-4.1c-8.5,0-13,6.2-13,13.3c0,7.2,4.6,13.8,13,13.8
		c4.1,0,8.3-2,11.2-4.9l3.7,5.1c-3.3,3.4-8.3,6.3-15.2,6.3c-12.1,0-20-8.8-20-20.1C156.5,31.5,164.7,22.9,176.4,22.9"/>
	<rect x="200.7" y="17.4" class="st1" width="1.4" height="50.8"/>
	<path d="M254.2,27.5c-1-0.8-2.1-1.2-3.5-1.2c-0.7,0-1.3,0.1-1.9,0.3c-0.6,0.2-1.2,0.5-1.9,1v-0.3c0-0.4,0-0.8-0.1-1.2l-3.9,0.6V27
		c0.8,0,1.3,0.2,1.6,0.6s0.5,1.2,0.5,2.2v9.3c0,0.8,0,1.4-0.1,1.8c0,0.4-0.1,0.7-0.2,0.9c-0.1,0.3-0.3,0.5-0.6,0.7
		c-0.2,0.1-0.6,0.2-1.2,0.3v0.3h6v-0.3c-0.7-0.1-1.1-0.3-1.4-0.5c-0.2-0.2-0.3-0.4-0.4-0.7c-0.1-0.3-0.1-0.7-0.1-1.3v-0.9v-2.5
		c0.6,0.5,1.2,0.9,1.7,1.1c0.5,0.2,1.1,0.3,1.7,0.3c1.4,0,2.6-0.4,3.7-1.3c0.7-0.6,1.2-1.2,1.5-2.1c0.4-0.8,0.5-1.8,0.5-2.7
		c0-0.9-0.2-1.8-0.5-2.6C255.3,28.7,254.8,28,254.2,27.5 M253.4,34.5c-0.2,0.7-0.6,1.4-1,1.9c-0.7,0.9-1.5,1.4-2.5,1.4
		c-0.4,0-0.8-0.1-1.2-0.3s-0.7-0.5-1-0.8c-0.3-0.4-0.5-0.9-0.6-1.5s-0.2-1.6-0.2-2.8s0.1-2.1,0.2-2.8c0.1-0.6,0.3-1.2,0.6-1.6
		s0.6-0.7,1-1c0.4-0.2,0.9-0.4,1.3-0.4c1,0,1.8,0.5,2.5,1.4c0.4,0.5,0.7,1.2,0.9,1.9c0.2,0.7,0.3,1.5,0.3,2.3
		C253.8,33,253.6,33.8,253.4,34.5"/>
	<path d="M215.7,27.6c0.1,0.2,0.3,0.7,0.6,1.2l0.4,1l2.8,6.7c0.3,0.8,0.5,1.4,0.5,1.7c0,0.2-0.1,0.6-0.3,1l-0.4,1
		c-0.4,0.8-0.8,1.3-1.4,1.3c-0.1,0-0.2,0-0.3,0s-0.3-0.1-0.6-0.2c-0.3-0.1-0.6-0.2-0.8-0.2c-0.3,0-0.5,0.1-0.7,0.2
		c-0.2,0.1-0.3,0.3-0.3,0.6s0.1,0.5,0.4,0.7c0.3,0.2,0.7,0.3,1.2,0.3c0.7,0,1.4-0.3,1.9-0.9c0.3-0.3,0.7-1.1,1.1-2.2l3.9-9.5
		c0.6-1.4,1-2.3,1.2-2.7c0.2-0.3,0.3-0.4,0.5-0.6c0.2-0.1,0.5-0.2,0.9-0.3v-0.3h-3.9v0.3c0.4,0.1,0.8,0.2,1,0.4
		c0.2,0.2,0.3,0.6,0.3,1c0,0.5-0.2,1.4-0.7,2.6l-2,4.9l-2.3-5.8c-0.4-0.9-0.6-1.6-0.6-1.9c0-0.4,0.2-0.7,0.5-0.9
		c0.2-0.1,0.4-0.2,0.8-0.2v-0.3h-5.2v0.3c0.3,0,0.6,0.1,0.8,0.3C215.4,27.2,215.6,27.4,215.7,27.6"/>
	<path d="M297.6,37.8c0.8,0.4,1.8,0.5,2.9,0.5c1.3,0,2.3-0.3,3.1-0.8c0.8-0.5,1.3-1.3,1.5-2.4l-0.3-0.1c-0.2,0.7-0.5,1.2-0.8,1.5
		s-0.7,0.5-1.1,0.7s-0.9,0.2-1.4,0.2c-0.7,0-1.3-0.1-1.9-0.4c-0.6-0.3-1.1-0.7-1.5-1.2s-0.7-1.1-0.9-1.9c-0.2-0.8-0.3-1.5-0.3-2.3
		c0-0.2,0-0.5,0.1-1h8c0-1.2-0.3-2.1-1-2.9c-0.4-0.5-1-0.9-1.6-1.1c-0.6-0.3-1.3-0.4-2-0.4c-1.4,0-2.6,0.4-3.7,1.3
		c-1.5,1.2-2.2,2.8-2.2,4.8c0,1.5,0.4,2.8,1.2,3.8C296.1,36.9,296.8,37.4,297.6,37.8 M298,27.5c0.6-0.7,1.3-1,2.1-1
		c0.5,0,0.9,0.1,1.3,0.4s0.7,0.6,1,1.1s0.4,1.2,0.5,2.1H297C297,29,297.4,28.2,298,27.5"/>
	<path d="M346.7,35c-0.2,0.7-0.5,1.2-0.8,1.5s-0.7,0.5-1.1,0.7s-0.9,0.2-1.4,0.2c-0.7,0-1.3-0.1-1.9-0.4c-0.6-0.3-1.1-0.7-1.5-1.2
		s-0.7-1.1-0.9-1.9c-0.2-0.8-0.3-1.5-0.3-2.3c0-0.2,0-0.5,0.1-1h8c0-1.2-0.3-2.1-1-2.9c-0.4-0.5-1-0.9-1.6-1.1
		c-0.6-0.3-1.3-0.4-2-0.4c-1.4,0-2.6,0.4-3.7,1.3c-1.5,1.2-2.2,2.8-2.2,4.8c0,1.5,0.4,2.8,1.2,3.8c0.6,0.7,1.2,1.3,2,1.6
		c0.8,0.4,1.8,0.5,2.9,0.5c1.3,0,2.3-0.3,3.1-0.8c0.8-0.5,1.3-1.3,1.5-2.4L346.7,35z M339.8,27.5c0.6-0.7,1.3-1,2.1-1
		c0.5,0,0.9,0.1,1.3,0.4s0.7,0.6,1,1.1s0.4,1.2,0.5,2.1h-5.9C338.9,29,339.3,28.2,339.8,27.5"/>
	<path d="M277.5,38c1.3,0,2.3-0.3,3.1-0.9c0.7-0.6,1.1-1.3,1.1-2.2s-0.4-1.6-1.1-2.1c-0.4-0.3-0.9-0.5-1.4-0.7s-1-0.2-1.6-0.2v-0.1
		c0.7-0.1,1.2-0.3,1.7-0.5c0.5-0.3,0.8-0.6,1-0.9c0.2-0.4,0.3-0.8,0.3-1.2c0-0.8-0.3-1.4-0.9-1.8c-0.6-0.5-1.6-0.7-2.8-0.7h-1h-0.3
		h-5.7V27c0.7,0.1,1.1,0.3,1.4,0.6c0.2,0.2,0.3,0.4,0.4,0.7c0.1,0.3,0.1,0.7,0.1,1.3c0,0,0,6,0,6.4c0,0.4-0.1,0.7-0.2,0.9
		c-0.1,0.3-0.3,0.5-0.6,0.7c-0.2,0.1-0.6,0.2-1.2,0.3V38h6.2H277.5z M278.2,32.7c0.6,0.4,0.9,1.1,0.9,2.1c0,0.8-0.2,1.5-0.7,2
		s-1.1,0.7-2,0.7c-0.7,0-1.2-0.1-1.6-0.3s-0.6-0.5-0.7-0.8c-0.1-0.2-0.1-0.5-0.1-0.9c0-0.1,0-0.3,0-0.4v-2.7c0-0.1,0.1-0.2,0.2-0.2
		s0.4-0.1,0.9-0.1C276.5,32.1,277.6,32.3,278.2,32.7 M277.4,27.6c0.4,0.4,0.6,1,0.6,1.7c0,0.9-0.2,1.5-0.7,1.8
		c-0.4,0.3-1.2,0.5-2.3,0.5c-0.3,0-0.5,0-0.6,0s-0.2,0-0.3,0c-0.1,0-0.2-0.1-0.2-0.2v-0.9c0-0.8,0-2.9,0-2.9c0-0.5,0.7-0.6,1.3-0.6
		C276.3,27,277,27.2,277.4,27.6"/>
	<path d="M280.7,48.4h-2.5h-1h-2.5h-2.6l-0.2,2.8h0.3l0.3-0.7c0.4-0.9,1.3-1.5,2.3-1.5h1.8c0,0.9,0,8.3,0,8.7s-0.1,0.7-0.2,0.9
		c-0.1,0.3-0.3,0.5-0.6,0.7c-0.2,0.1-0.6,0.2-1.2,0.3v0.3h6v-0.3c-0.7-0.1-1.1-0.3-1.4-0.6c-0.2-0.2-0.3-0.4-0.4-0.7
		s-0.1-0.7-0.1-1.3v-8h1.9c1,0,1.9,0.6,2.3,1.5l0.3,0.7h0.3l-0.2-2.8C283.3,48.4,280.7,48.4,280.7,48.4z"/>
	<path d="M264.7,48.7c0.7,0.1,1.1,0.3,1.4,0.6c0.2,0.2,0.3,0.4,0.4,0.7c0.1,0.2,0.1,0.6,0.1,1.1l-5.7,5.7v-4.3c0-0.8,0-1.4,0.1-1.8
		c0-0.4,0.1-0.7,0.2-0.9c0.1-0.3,0.3-0.5,0.6-0.7c0.2-0.1,0.6-0.2,1.2-0.3v-0.3h-6v0.3c0.7,0.1,1.1,0.3,1.4,0.6
		c0.2,0.2,0.3,0.4,0.4,0.7s0.1,0.7,0.1,1.3c0,0,0,6,0,6.4s-0.1,0.7-0.2,0.9c-0.1,0.3-0.3,0.5-0.6,0.7c-0.2,0.1-0.6,0.2-1.2,0.3V60h6
		v-0.3c-0.7-0.1-1.1-0.3-1.4-0.6c-0.2-0.2-0.3-0.4-0.4-0.7c0-0.2-0.1-0.4-0.1-0.7l5.7-5.6c0,1.6,0,5.4,0,5.7c0,0.4-0.1,0.7-0.2,0.9
		c-0.1,0.3-0.3,0.5-0.6,0.7c-0.2,0.1-0.6,0.2-1.2,0.3V60h6v-0.3c-0.7-0.1-1.1-0.3-1.4-0.6c-0.2-0.2-0.3-0.4-0.4-0.7
		s-0.1-0.7-0.1-1.3v-4.6c0-0.8,0-1.4,0.1-1.8c0-0.4,0.1-0.7,0.2-0.9c0.1-0.3,0.3-0.5,0.6-0.7c0.2-0.1,0.6-0.2,1.2-0.3v-0.3h-6v0.2
		H264.7z"/>
	<path d="M319.8,49.7c-0.6-0.5-1.2-0.9-2-1.2c-0.7-0.3-1.5-0.4-2.3-0.4c-1.2,0-2.3,0.3-3.3,0.8s-1.7,1.3-2.3,2.2
		c-0.6,0.9-0.8,2-0.8,3.1s0.3,2.2,0.9,3.1c0.6,0.9,1.4,1.6,2.3,2.1c1,0.5,1.9,0.8,2.9,0.8c1.2,0,2.3-0.3,3.3-0.8s1.7-1.3,2.3-2.2
		c0.6-0.9,0.8-2,0.8-3.1c0-0.9-0.2-1.7-0.5-2.4C320.8,50.9,320.3,50.2,319.8,49.7 M318.2,58.2c-0.6,1-1.6,1.4-2.8,1.4
		c-1.3,0-2.2-0.5-2.8-1.4c-0.6-1-0.9-2.3-0.9-4.1c0-1.2,0.1-2.2,0.4-3s0.7-1.5,1.3-1.9c0.6-0.4,1.3-0.6,2.1-0.6
		c1.3,0,2.2,0.5,2.9,1.4c0.6,0.9,0.9,2.3,0.9,4.1C319.2,55.9,318.9,57.3,318.2,58.2"/>
	<path d="M239.7,59.1c-0.2,0.1-0.4,0.1-0.7,0.1c-0.6,0-1-0.3-1.1-1c-0.1-0.3-0.1-0.9-0.1-1.7v-5c0-0.6,0-1.1-0.1-1.4
		c-0.1-0.5-0.5-1-1.1-1.3c-0.4-0.2-0.9-0.4-1.5-0.6c-0.6-0.1-1.2-0.2-1.7-0.2s-1,0.1-1.5,0.2c-0.5,0.1-1,0.2-1.3,0.4
		c-0.6,0.3-1,0.7-1,1.2c0,0.3,0.1,0.6,0.3,0.8s0.5,0.3,0.8,0.3c0.5,0,0.8-0.2,1-0.6l0.3-0.8c0.1-0.3,0.4-0.6,0.6-0.8
		c0.3-0.2,0.6-0.3,1-0.3c0.3,0,0.6,0.1,0.9,0.2c0.3,0.1,0.5,0.3,0.7,0.5c0.4,0.5,0.6,1.3,0.6,2.3c0,0.5-0.1,0.9-0.2,1.2
		c-0.1,0.3-0.3,0.5-0.6,0.7s-0.6,0.4-0.9,0.5c-0.4,0.1-0.9,0.3-1.7,0.5c-0.7,0.2-1.2,0.3-1.5,0.5c-0.4,0.2-0.7,0.4-0.9,0.7
		c-0.5,0.5-0.7,1.1-0.7,1.9c0,0.8,0.3,1.5,0.9,1.9c0.6,0.5,1.4,0.7,2.4,0.7c0.8,0,1.5-0.2,2-0.5c0.3-0.2,0.8-0.5,1.4-1.1
		c0.3,0.5,0.6,0.9,0.9,1.1c0.4,0.3,1,0.5,1.6,0.5c1.2,0,1.9-0.5,2.2-1.4l-0.2-0.1C240.1,58.8,239.9,59,239.7,59.1 M235.8,55.4
		c0,1.1-0.1,2-0.4,2.6c-0.2,0.5-0.5,0.8-0.9,1.1s-0.8,0.4-1.2,0.4c-0.5,0-0.9-0.2-1.2-0.6c-0.3-0.4-0.5-0.9-0.5-1.5
		c0-0.7,0.2-1.3,0.6-1.8c0.2-0.3,0.4-0.5,0.7-0.6c0.3-0.2,0.7-0.4,1.4-0.8c0.6-0.3,1.1-0.7,1.6-1.1v2.3H235.8z"/>
	<path d="M295.5,59.1c-0.2,0.1-0.4,0.1-0.7,0.1c-0.6,0-1-0.3-1.1-1c-0.1-0.3-0.1-0.9-0.1-1.7v-5c0-0.6,0-1.1-0.1-1.4
		c-0.1-0.5-0.5-1-1.1-1.3c-0.4-0.2-0.9-0.4-1.5-0.6c-0.6-0.1-1.2-0.2-1.7-0.2s-1,0.1-1.5,0.2c-0.5,0.1-1,0.2-1.3,0.4
		c-0.6,0.3-1,0.7-1,1.2c0,0.3,0.1,0.6,0.3,0.8c0.2,0.2,0.5,0.3,0.8,0.3c0.5,0,0.8-0.2,1-0.6l0.3-0.8c0.1-0.3,0.4-0.6,0.6-0.8
		c0.3-0.2,0.6-0.3,1-0.3c0.3,0,0.6,0.1,0.9,0.2c0.3,0.1,0.5,0.3,0.7,0.5c0.4,0.5,0.6,1.3,0.6,2.3c0,0.5-0.1,0.9-0.2,1.2
		s-0.3,0.5-0.6,0.7c-0.3,0.2-0.6,0.4-0.9,0.5c-0.4,0.1-1,0.3-1.7,0.5s-1.2,0.3-1.5,0.5c-0.4,0.2-0.7,0.4-0.9,0.7
		c-0.5,0.5-0.7,1.1-0.7,1.9c0,0.8,0.3,1.5,0.9,1.9c0.6,0.5,1.4,0.7,2.4,0.7c0.8,0,1.5-0.2,2-0.5c0.3-0.2,0.8-0.5,1.4-1.1
		c0.3,0.5,0.6,0.9,0.9,1.1c0.4,0.3,1,0.5,1.6,0.5c1.2,0,1.9-0.5,2.2-1.4l-0.2-0.1C295.8,58.8,295.7,59,295.5,59.1 M291.6,55.4
		c0,1.1-0.1,2-0.4,2.6c-0.2,0.5-0.5,0.8-0.9,1.1s-0.8,0.4-1.2,0.4c-0.5,0-0.9-0.2-1.2-0.6c-0.3-0.4-0.5-0.9-0.5-1.5
		c0-0.7,0.2-1.3,0.6-1.8c0.2-0.3,0.4-0.5,0.7-0.6c0.3-0.2,0.7-0.4,1.4-0.8c0.6-0.3,1.1-0.7,1.6-1.1v2.3H291.6z"/>
	<path d="M227.2,58.8c-0.1,0.1-0.2,0.2-0.4,0.2s-0.3-0.1-0.5-0.3c-0.1-0.2-0.4-0.7-0.8-1.6c-0.5-1.1-1-1.9-1.5-2.3
		c-0.5-0.4-1.3-0.7-2.5-0.9v-0.1c0.3-0.2,0.5-0.5,0.7-0.8s0.4-0.8,0.6-1.5l0.5-1.3c0.2-0.5,0.3-0.8,0.5-1c0.1-0.2,0.3-0.2,0.5-0.2
		s0.3,0,0.4,0.1c0.1,0.1,0.2,0.2,0.3,0.4s0.2,0.3,0.3,0.4c0.1,0.1,0.3,0.1,0.6,0.1c0.2,0,0.4-0.1,0.5-0.3s0.2-0.4,0.2-0.6
		c0-0.3-0.1-0.5-0.4-0.7c-0.3-0.2-0.7-0.3-1.2-0.3c-1.1,0-1.9,0.6-2.4,1.8l-0.8,2c-0.2,0.6-0.5,1.1-0.8,1.4
		c-0.3,0.3-0.8,0.4-1.4,0.4h-1.2v-1.3c0-0.8,0-1.4,0.1-1.8c0-0.4,0.1-0.7,0.2-0.9c0.1-0.3,0.3-0.5,0.6-0.7c0.2-0.1,0.6-0.2,1.2-0.3
		v-0.3h-6v0.3c0.7,0.1,1.1,0.3,1.4,0.6c0.2,0.2,0.3,0.4,0.4,0.7c0.1,0.3,0.1,0.7,0.1,1.3c0,0,0,6,0,6.4s-0.1,0.7-0.2,0.9
		c-0.1,0.3-0.3,0.5-0.6,0.7c-0.2,0.1-0.6,0.2-1.2,0.3v0.3h6v-0.3c-0.7-0.1-1.1-0.3-1.4-0.6c-0.2-0.2-0.3-0.4-0.4-0.7
		c-0.1-0.3-0.1-0.7-0.1-1.3v-2.7h1.2c0.6,0,1,0.1,1.4,0.2c0.3,0.2,0.7,0.5,1,0.9c0.3,0.5,0.8,1.3,1.3,2.4c0.3,0.6,0.5,1.1,0.8,1.4
		c0.1,0.2,0.3,0.3,0.4,0.4c0.1,0.1,0.3,0.2,0.4,0.3c0.3,0.1,0.6,0.2,0.9,0.2c0.6,0,1-0.2,1.4-0.5c0.3-0.3,0.5-0.7,0.5-1.2l-0.4-0.1
		C227.3,58.6,227.3,58.7,227.2,58.8"/>
	<path d="M249.1,48.4h-1.9h-2.5h-3.4v0.3c0.5,0.1,0.9,0.2,1.2,0.3c0.2,0.1,0.4,0.4,0.6,0.7c0.1,0.2,0.2,0.5,0.2,0.9s0.1,1,0.1,1.8
		V57c0,0.6,0,1.1-0.1,1.3c-0.1,0.3-0.2,0.5-0.4,0.7c-0.3,0.2-0.7,0.4-1.4,0.6v0.3h6v-0.3c-0.5-0.1-0.9-0.2-1.2-0.3
		c-0.2-0.1-0.4-0.4-0.6-0.7c-0.1-0.2-0.2-0.5-0.2-0.9c0-0.3,0-5.9,0-7.9c0-0.4,0.3-0.7,0.7-0.7h1.2h1.9h1.2c0.4,0,0.7,0.3,0.7,0.7
		c0,2,0,7.6,0,7.9c0,0.4-0.1,0.7-0.2,0.9c-0.1,0.3-0.3,0.5-0.6,0.7c-0.2,0.1-0.6,0.2-1.2,0.3v0.3h6v-0.3c-0.7-0.1-1.1-0.3-1.4-0.6
		c-0.2-0.2-0.3-0.4-0.4-0.7c-0.1-0.3-0.1-0.7-0.1-1.3v-4.6c0-0.8,0-1.4,0.1-1.8c0-0.4,0.1-0.7,0.2-0.9c0.1-0.3,0.3-0.5,0.6-0.7
		c0.2-0.1,0.6-0.2,1.2-0.3v-0.3h-4H249.1z"/>
	<path d="M333.7,48.7L333.7,48.7C333.7,48.8,333.7,48.8,333.7,48.7l-0.1,0.4l0,0l-3.7,7.7l-3.7-7.7l0,0l-0.4-0.8h-3.7v0.3
		c0.5,0.1,0.9,0.2,1.2,0.3c0.2,0.1,0.4,0.4,0.6,0.7c0.1,0.2,0.2,0.5,0.2,0.9s0.1,1,0.1,1.8v4.6c0,0.6,0,1.1-0.1,1.3
		c-0.1,0.3-0.2,0.5-0.4,0.7c-0.3,0.2-0.7,0.4-1.4,0.6v0.3h4.5v-0.3c-0.5-0.1-0.9-0.2-1.2-0.3c-0.2-0.1-0.4-0.4-0.6-0.7
		c-0.1-0.2-0.2-0.5-0.2-0.9c0-0.3,0-4.1,0-6.6v-0.3h0.1l4.2,9h0.2l4.4-9.1h0.1c0,2.7,0,6.7,0,7c0,0.4-0.1,0.7-0.2,0.9
		c-0.1,0.3-0.3,0.5-0.6,0.7c-0.2,0.1-0.6,0.2-1.2,0.3v0.3h6v-0.3c-0.7-0.1-1.1-0.3-1.4-0.6c-0.2-0.2-0.3-0.4-0.4-0.7
		s-0.1-0.7-0.1-1.3v-4.6c0-0.8,0-1.4,0.1-1.8c0-0.4,0.1-0.7,0.2-0.9c0.1-0.3,0.3-0.5,0.6-0.7c0.2-0.1,0.6-0.2,1.2-0.3v-0.3h-3.9
		L333.7,48.7z"/>
	<path d="M327.2,37.7c-0.7-0.1-1.1-0.3-1.4-0.6c-0.2-0.2-0.3-0.4-0.4-0.7c0-0.2-0.1-0.4-0.1-0.7l5.7-5.6c0,1.6,0,5.4,0,5.7
		c0,0.4-0.1,0.7-0.2,0.9c-0.1,0.3-0.3,0.5-0.6,0.7c-0.2,0.1-0.6,0.2-1.2,0.3V38h6v-0.3c-0.7-0.1-1.1-0.3-1.4-0.6
		c-0.2-0.2-0.3-0.4-0.4-0.7s-0.1-0.7-0.1-1.3v-4.6c0-0.8,0-1.4,0.1-1.8c0-0.4,0.1-0.7,0.2-0.9c0.1-0.3,0.3-0.5,0.6-0.7
		c0.2-0.1,0.6-0.2,1.2-0.3v-0.3h-6v0.3c0.7,0.1,1.1,0.3,1.4,0.6c0.2,0.2,0.3,0.4,0.4,0.7c0.1,0.2,0.1,0.6,0.1,1.1l-5.7,5.7v-4.3
		c0-0.8,0-1.4,0.1-1.8c0-0.4,0.1-0.7,0.2-0.9c0.1-0.3,0.3-0.5,0.6-0.7c0.2-0.1,0.6-0.2,1.2-0.3v-0.3h-6v0.3c0.7,0.1,1.1,0.3,1.4,0.6
		c0.2,0.2,0.3,0.4,0.4,0.7c0.1,0.3,0.1,0.7,0.1,1.3c0,0,0,6,0,6.4s-0.1,0.7-0.2,0.9c-0.1,0.3-0.3,0.5-0.6,0.7
		c-0.2,0.1-0.6,0.2-1.2,0.3V38h6v-0.3H327.2z"/>
	<path d="M312.4,37.7c-0.7-0.1-1.1-0.3-1.4-0.6c-0.2-0.2-0.3-0.4-0.4-0.7s-0.1-0.7-0.1-1.3v-2.7h5.7c0,1.6,0,3.2,0,3.4
		c0,0.4-0.1,0.7-0.2,0.9c-0.1,0.3-0.3,0.5-0.6,0.7c-0.2,0.1-0.6,0.2-1.2,0.3V38h6v-0.3c-0.7-0.1-1.1-0.3-1.4-0.6
		c-0.2-0.2-0.3-0.4-0.4-0.7s-0.1-0.7-0.1-1.3v-4.6c0-0.8,0-1.4,0.1-1.8c0-0.4,0.1-0.7,0.2-0.9c0.1-0.3,0.3-0.5,0.6-0.7
		c0.2-0.1,0.6-0.2,1.2-0.3v-0.3h-6v0.3c0.7,0.1,1.1,0.3,1.4,0.6c0.2,0.2,0.3,0.4,0.4,0.7c0.1,0.3,0.1,0.7,0.1,1.3c0,0,0,1.1,0,2.3
		h-5.7v-1.2c0-0.8,0-1.4,0.1-1.8c0-0.4,0.1-0.7,0.2-0.9c0.1-0.3,0.3-0.5,0.6-0.7c0.2-0.1,0.6-0.2,1.2-0.3v-0.3h-6v0.3
		c0.7,0.1,1.1,0.3,1.4,0.6c0.2,0.2,0.3,0.4,0.4,0.7c0.1,0.3,0.1,0.7,0.1,1.3c0,0,0,6,0,6.4s-0.1,0.7-0.2,0.9
		c-0.1,0.3-0.3,0.5-0.6,0.7c-0.2,0.1-0.6,0.2-1.2,0.3V38h6v-0.3H312.4z"/>
	<path d="M227.2,26.8c0.5,0.1,0.9,0.2,1.2,0.3c0.2,0.1,0.4,0.4,0.6,0.7c0.1,0.2,0.2,0.5,0.2,0.9s0.1,1,0.1,1.8v4.6
		c0,0.6,0,1.1-0.1,1.3c-0.1,0.3-0.2,0.5-0.4,0.7c-0.3,0.2-0.7,0.4-1.4,0.6V38h6v-0.3c-0.5-0.1-0.9-0.2-1.2-0.3
		c-0.2-0.1-0.4-0.4-0.6-0.7c-0.1-0.2-0.2-0.5-0.2-0.9c0-0.3,0-5.9,0-7.9c0-0.4,0.3-0.7,0.7-0.7h1.2h1.9h1.2c0.4,0,0.7,0.3,0.7,0.7
		c0,2,0,7.6,0,7.9c0,0.4-0.1,0.7-0.2,0.9c-0.1,0.3-0.3,0.5-0.6,0.7c-0.2,0.1-0.6,0.2-1.2,0.3V38h6v-0.3c-0.7-0.1-1.1-0.3-1.4-0.6
		c-0.2-0.2-0.3-0.4-0.4-0.7c-0.1-0.3-0.1-0.7-0.1-1.3v-4.6c0-0.8,0-1.4,0.1-1.8c0-0.4,0.1-0.7,0.2-0.9c0.1-0.3,0.3-0.5,0.6-0.7
		c0.2-0.1,0.6-0.2,1.2-0.3v-0.3h-13.8v0.3H227.2z"/>
	<path d="M263.4,31.5c-0.3,0.2-0.6,0.4-0.9,0.5c-0.4,0.1-1,0.3-1.7,0.5s-1.2,0.3-1.5,0.5c-0.4,0.2-0.7,0.4-0.9,0.7
		c-0.5,0.5-0.7,1.1-0.7,1.9c0,0.8,0.3,1.5,0.9,1.9c0.6,0.5,1.4,0.7,2.4,0.7c0.8,0,1.5-0.2,2-0.5c0.3-0.2,0.8-0.5,1.4-1.1
		c0.3,0.5,0.6,0.9,0.9,1.1c0.4,0.3,1,0.5,1.6,0.5c1.2,0,1.9-0.5,2.2-1.4l-0.2-0.1c-0.2,0.3-0.4,0.5-0.6,0.6s-0.4,0.1-0.7,0.1
		c-0.6,0-1-0.3-1.1-1c-0.1-0.3-0.1-0.9-0.1-1.7v-5c0-0.6,0-1.1-0.1-1.4c-0.1-0.5-0.5-1-1.1-1.3c-0.4-0.2-0.9-0.4-1.5-0.6
		c-0.6-0.1-1.2-0.2-1.7-0.2s-1,0.1-1.5,0.2s-1,0.2-1.3,0.4c-0.6,0.3-1,0.7-1,1.2c0,0.3,0.1,0.6,0.3,0.8c0.2,0.2,0.5,0.3,0.8,0.3
		c0.5,0,0.8-0.2,1-0.6l0.3-0.8c0.1-0.3,0.4-0.6,0.6-0.8c0.3-0.2,0.6-0.3,1-0.3c0.3,0,0.6,0.1,0.9,0.2s0.5,0.3,0.7,0.5
		c0.4,0.5,0.6,1.3,0.6,2.3c0,0.5-0.1,0.9-0.2,1.2C263.9,31,263.7,31.3,263.4,31.5 M264.2,31.3v2.2c0,1.1-0.1,2-0.4,2.6
		c-0.2,0.5-0.5,0.8-0.9,1.1s-0.8,0.4-1.2,0.4c-0.5,0-0.9-0.2-1.2-0.6c-0.3-0.4-0.5-0.9-0.5-1.5c0-0.7,0.2-1.3,0.6-1.8
		c0.2-0.3,0.4-0.5,0.7-0.6c0.3-0.2,0.7-0.4,1.4-0.8C263.2,32,263.7,31.7,264.2,31.3"/>
	<path d="M285.9,37.7c0,0-0.6-0.1-0.8-0.2c-0.3-0.2-0.5-0.6-0.4-1.1l2.6-7.9l2.3,5.8c0.2,0.6,0.4,1.1,0.5,1.4
		c0.1,0.3,0.1,0.6,0.1,0.8c0,0.4-0.1,0.7-0.4,0.9c-0.1,0.1-0.4,0.2-0.8,0.3V38h5.2v-0.3c-0.3,0-0.5-0.1-0.7-0.2
		c-0.2-0.1-0.3-0.2-0.4-0.3c-0.2-0.3-0.6-1-1.1-2.3l-3.4-8.4H288h-0.7h-1.5v0.3c1.2,0.2,1,1.2,0.9,1.6l0,0c-0.6,2.1-2.4,7.8-3.2,8.6
		c-0.3,0.3-0.7,0.5-1.2,0.6V38h3.7v-0.3H285.9z"/>
	<path d="M307.8,59.1c-0.2-0.3-0.6-1-1.1-2.3l-3.4-8.4h-0.6H302h-1.5v0.3c1.2,0.2,1,1.2,0.9,1.6l0,0c-0.6,2.1-2.4,7.8-3.2,8.7
		c-0.3,0.3-0.7,0.5-1.2,0.6v0.3h3.7v-0.3c0,0-0.6-0.1-0.8-0.2c-0.3-0.2-0.5-0.6-0.4-1.1l2.6-7.9l2.3,5.8c0.2,0.6,0.4,1.1,0.5,1.4
		c0.1,0.3,0.1,0.6,0.1,0.8c0,0.4-0.1,0.7-0.4,0.9c-0.1,0.1-0.4,0.2-0.8,0.3v0.3h5.2v-0.3c-0.3,0-0.5-0.1-0.7-0.2
		C308.1,59.3,307.9,59.2,307.8,59.1"/>
</g>
</svg>
